<svg version="1" xmlns="http://www.w3.org/2000/svg" width="933.333" height="933.333" viewBox="0 0 700.000000 700.000000"><path d="M82.5.7C57.5 2.9 33 17.1 18.9 37.6c-4 5.8-10.2 19.2-12.5 26.9C4.6 70.2 4.5 83.1 4.2 343c-.3 302.3-.8 279.9 6.3 296.3 5.4 12.6 9.4 18.6 19 28.2 13.6 13.6 30.1 21.9 48.8 24.4 11 1.5 532.4 1.5 543.4 0 18.7-2.5 35.2-10.8 48.8-24.4 9.6-9.6 13.6-15.6 19-28.2 7.1-16.4 6.6 6 6.3-296.3-.3-259.9-.4-272.8-2.2-278.5C684 32.6 661.7 11.1 629 2.3 622.9.7 606.5.5 354.5.4 207.1.4 84.7.5 82.5.7zm500.8 132.2c7.6 3 15.3 9.3 19.9 16.3 7.2 10.7 6.9 2.9 6.6 145.9l-.3 128.4-3.1 6.5c-3.7 7.9-11.2 15.9-18.2 19.4-11.3 5.7-9 5.6-105.4 5.6-48.8 0-88.8.3-88.8.7 0 .5 4.7 18.5 10.5 40.2 5.8 21.6 10.5 39.5 10.5 39.7 0 .2 15.3.4 34.1.4 29.4 0 34.6.2 37.5 1.6 4.9 2.3 7.7 6.8 7.7 12 0 5-2.1 8.7-6.6 11.4-3.1 1.9-6.1 2-137.7 2s-134.6-.1-137.7-2c-9.4-5.7-8.8-18.7 1.1-23.4 2.9-1.4 8.1-1.6 37.5-1.6 18.8 0 34.1-.2 34.1-.4s4.7-18.1 10.5-39.7c5.8-21.7 10.5-39.7 10.5-40.2 0-.4-40-.7-88.8-.7-96.4 0-94.1.1-105.4-5.6-7-3.5-14.5-11.5-18.2-19.4l-3.1-6.5-.3-128.4c-.3-142-.6-134.9 6.1-145.4 5.7-8.8 13.1-14.4 23.7-17.8 5.2-1.7 17.3-1.8 231.5-1.6l226 .2 5.8 2.4z"/><path d="M129.5 157.7c-3.5.9-7.7 4.5-9.1 7.9-1.2 2.8-1.4 23.8-1.4 127.1 0 118.9.1 124 1.9 127.3 1 1.9 3.4 4.4 5.2 5.5 3.4 2 5.2 2 223.9 2 218.7 0 220.5 0 223.9-2 1.8-1.1 4.2-3.6 5.2-5.5 1.8-3.3 1.9-8.4 1.9-127.3 0-135.9.4-128.2-6.1-132.8l-3.4-2.4-220-.1c-121-.1-220.9.1-222 .3zm181.6 25.9c10 3 20.6 9.4 32.2 19.6l6.7 6 6.8-5.9c15.7-13.8 28.1-20.3 39.6-21.1 8.6-.5 13.6 1.5 18.4 7.6 7.3 9.2 10.1 30.1 6.8 50.4-.9 5.4-1.6 10.4-1.6 11.1 0 .7 2.5 2.1 5.7 3.1 9.8 3.1 26.4 12.2 33.1 18.2 16.3 14.6 16.5 28.8.6 43.3-7.1 6.5-17.9 12.9-29.8 17.7-5 1.9-9.2 3.7-9.4 3.9-.1.1.2 2.4.8 5 2 9 2.9 23.9 2 32.6-2.3 21.4-10.3 31.8-24.7 31.9-12 0-24.6-6.3-40.8-20.6l-7-6.1-5 4.4c-20.4 18.2-40.2 26.1-52.7 20.9-4.9-2.1-10.2-8.3-12.8-15.2-3.2-8.2-3.9-26.9-1.5-41.8.9-5.9 1.5-10.9 1.3-11-.2-.1-4.3-1.7-9.1-3.6-17.2-6.5-32.8-17.9-38.8-28.4-4.1-7.2-4.1-15 0-22.2 6-10.5 20.7-21 39-27.9l9.8-3.7-1.4-6.2c-2.1-9.1-2.8-31.2-1.3-38.8 3.9-20.2 15.6-28.4 33.1-23.2z"/><path d="M296.2 194.5c-8.1 3.6-10.7 20.6-7 45.1.6 4 1.4 7.7 1.8 8.4.6.9 2.5.8 8.6-.4 4.4-.8 11.3-2 15.4-2.6 4.1-.6 7.8-1.4 8.1-1.8.3-.4 3.1-4.1 6.1-8.2 3-4.1 7.4-9.8 9.6-12.6l4.2-5.1-5.2-4.4c-9.3-7.9-15.2-12-22.3-15.4-8.4-4.1-14.7-5.1-19.3-3zM393 193.7c-10.3 3.4-19.7 9.3-29.3 18.2l-6.1 5.8 5.5 6.9c3 3.8 7.5 9.7 9.9 13.1 3.8 5.5 4.8 6.2 8.4 6.8 2.3.3 8.4 1.4 13.6 2.2 15.2 2.6 14.2 2.9 15.7-5.2 2.7-15.8 1.2-38-3-43.5-3.2-4.2-9.5-6.1-14.7-4.3zM344 233.1c-8.4 10.8-9 9.9 6 9.9 7.6 0 13-.4 12.8-.9-.5-1.5-12.1-16.1-12.8-16.1-.3 0-3 3.2-6 7.1zM333.3 254.7l-5.2.4-6.5 11.2c-3.5 6.2-8.3 15-10.6 19.7l-4.2 8.6L312 305c2.9 5.8 7.7 14.6 10.7 19.6 4.5 7.7 5.9 9.3 8.5 9.8 4 .8 28.8.8 35.6-.1l5.3-.6 5.3-9.1c2.9-5 7.7-13.8 10.6-19.6l5.2-10.4-4.2-8.6c-2.3-4.7-7-13.5-10.6-19.6l-6.4-11.1-7.6-.7c-7.7-.6-21.2-.6-31.1.1zm27.5 20c5.1 2.9 9.7 9.7 10.7 15.5 2.4 14.1-8 27.3-21.5 27.2-17.2-.1-27.5-19.6-18.5-35 6.2-10.6 18.7-13.8 29.3-7.7zM309.9 257c-6.6 1.1-15.9 3.1-15.9 3.4 0 .4 5.7 16.9 6.5 18.9.6 1.5 1.8-.2 5.6-7.3 2.7-5.1 5.8-10.8 7-12.6 1.1-1.9 1.9-3.3 1.7-3.3-.2.1-2.4.5-4.9.9zM387 259.5c1.1 1.8 4.2 7.5 6.9 12.6 4.6 8.7 5 9.2 5.9 6.9 3-8 6.2-17.2 6.2-18 0-.9-5.9-2.3-15.8-3.9l-5.2-.8 2 3.2zM275 265.9c-18.8 7-32.1 16.7-35 25.5-1.8 5.4 2 13 9.4 18.8 6.1 4.8 17.7 10.9 26.5 13.9 7.1 2.5 7.8 2.4 8.6-.9.3-1.5 2.9-8.6 5.6-15.8l4.9-13-3.4-8.5c-1.8-4.6-4.4-11.7-5.7-15.7-1.3-3.9-2.5-7.2-2.8-7.2-.4.1-4 1.4-8.1 2.9zM414.1 270.2c-1.3 4-3.8 11.1-5.7 15.7l-3.3 8.3 3.3 8.2c1.8 4.4 4.3 11.2 5.6 15.1 1.2 3.8 2.6 7.4 3 7.8 1 1.1 15.5-4.7 24-9.7 14.1-8.3 21-16.7 19.5-23.7-1.6-7.1-15.6-17.9-31.6-24.3-13.5-5.4-12.2-5.6-14.8 2.6zM300.5 309.7c-1.3 3.2-6.5 18.7-6.5 19.3 0 .6 16.9 4 19.9 4 1 0 1-.4.3-1.3-.6-.6-3.7-6.3-7-12.5-4.6-8.7-6.1-10.9-6.7-9.5zM397.1 310.8c-.7 1.6-3.6 7.3-6.6 12.6-2.9 5.3-5.2 9.6-5.1 9.6.8 0 13-2.3 16.8-3.1l4.7-1.1-3.4-9.6c-1.9-5.2-3.8-9.9-4.3-10.4s-1.4.3-2.1 2zM290.6 341.9c-2.7 9-4 26.6-2.7 35.1 2.2 14 6.2 19 15.3 19 7.4-.1 23.2-8.7 33.4-18.3l6.4-5.9-3-3.7c-1.7-2-6.3-8-10.2-13.3l-7.1-9.7-6.6-.6c-3.6-.4-10.8-1.5-15.8-2.4-8.4-1.6-9.3-1.6-9.7-.2zM401.5 341.5c-3.3.8-10 1.9-15 2.5l-9 1.2-5.3 7.7c-2.9 4.2-7.3 10.2-9.9 13.3l-4.6 5.8 5.3 4.7c14.4 13 25.2 18.8 34.8 18.8 5.5 0 6.6-.3 8.3-2.5 3.6-4.5 4.8-7.7 6-15.2 1.8-11.7-.6-38-3.5-37.7-.6.1-3.8.7-7.1 1.4zM337.6 347.2c.7 1.2 7.8 10.4 11.2 14.7 1.2 1.4 1.7 1.2 4.9-2.4 1.9-2.2 5-6.1 6.9-8.8l3.4-4.7h-13.6c-10.5 0-13.4.3-12.8 1.2zM322.6 507.7c-3.7 14.1-7 26.2-7.3 27-.4 1.1 5.6 1.3 34.7 1.3s35.1-.2 34.7-1.3c-.3-.8-3.6-12.9-7.3-27l-6.8-25.7h-41.2l-6.8 25.7z"/></svg>