<svg width="800" height="800" viewBox="0 0 800 800" fill="none" xmlns="http://www.w3.org/2000/svg">
<path d="M550 0H50C22.3958 0 0 20.9961 0 46.875V328.125C0 354.004 22.3958 375 50 375H250L225 468.75H150C140.833 468.75 133.333 475.781 133.333 484.375C133.333 492.969 140.833 500 150 500H450C459.167 500 466.667 492.969 466.667 484.375C466.667 475.781 459.167 468.75 450 468.75H375L350 375H550C577.604 375 600 354.004 600 328.125V46.875C600 20.9961 577.604 0 550 0ZM259.375 468.75L276.042 406.25H323.958L340.625 468.75H259.375ZM566.667 328.125C566.667 336.719 559.167 343.75 550 343.75H50C40.8333 343.75 33.3333 336.719 33.3333 328.125V46.875C33.3333 38.2812 40.8333 31.25 50 31.25H550C559.167 31.25 566.667 38.2812 566.667 46.875V328.125Z" transform="translate(100 150)" fill="#61DAFB"/>
<path d="M228.703 84.2561C225.75 83.2115 222.797 82.225 219.844 81.2964C220.336 79.1492 220.773 77.002 221.211 74.8548C227.938 40.2674 223.508 12.4698 208.578 3.3006C194.195 -5.46232 170.734 3.6488 147 25.5851C144.648 27.7323 142.352 29.9956 140.164 32.2589C138.687 30.75 137.156 29.2412 135.625 27.7904C110.742 4.34519 85.8047 -5.52035 70.875 3.70683C56.5469 12.5278 52.2812 38.7005 58.2969 71.4309C58.8984 74.6807 59.5547 77.8725 60.3203 81.1223C56.8203 82.1669 53.375 83.3276 50.1484 84.5463C20.9453 95.2823 0 112.228 0 129.754C0 147.86 22.3125 166.024 52.6641 177.05C55.125 177.921 57.5859 178.791 60.1016 179.546C59.2813 183.028 58.5703 186.452 57.9141 189.992C52.1719 222.2 56.6563 247.734 70.9844 256.497C85.75 265.55 110.578 256.265 134.75 233.806C136.664 232.007 138.578 230.15 140.492 228.177C142.898 230.672 145.414 233.052 147.93 235.373C171.336 256.729 194.469 265.376 208.742 256.613C223.508 247.56 228.32 220.11 222.086 186.684C221.594 184.13 221.047 181.519 220.445 178.849C222.195 178.327 223.891 177.747 225.586 177.166C257.141 166.082 280 148.15 280 129.754C280 112.17 258.453 95.1082 228.703 84.2561V84.2561ZM154.711 34.9864C175.055 16.1838 194.031 8.8137 202.672 14.0947C211.914 19.7238 215.469 42.4726 209.672 72.3594C209.289 74.3325 208.906 76.2476 208.414 78.1627C196.273 75.261 183.969 73.1719 171.609 72.0112C164.5 61.2172 156.734 50.8873 148.313 41.1959C150.445 39.0487 152.523 37.0176 154.711 34.9864V34.9864ZM83.6172 144.726C86.1328 149.833 88.7031 154.882 91.4375 159.873C94.2266 164.921 97.0703 169.97 100.078 174.903C91.5469 173.916 83.0703 172.466 74.7031 170.551C77.1094 162.194 80.1172 153.547 83.6172 144.726V144.726ZM83.6172 115.362C80.1719 106.715 77.2734 98.242 74.8672 90.0594C82.7422 88.2023 91.1094 86.6935 99.8047 85.5328C96.9062 90.3495 94.0625 95.2823 91.3828 100.273C88.7031 105.206 86.0781 110.255 83.6172 115.362ZM89.8516 130.044C93.4609 122.035 97.3984 114.201 101.555 106.483C105.711 98.7642 110.195 91.278 114.898 83.9079C123.102 83.2695 131.469 82.9213 140 82.9213C148.531 82.9213 156.953 83.2695 165.102 83.9079C169.75 91.22 174.18 98.7062 178.391 106.367C182.602 114.027 186.539 121.861 190.258 129.812C186.594 137.82 182.656 145.713 178.445 153.489C174.289 161.207 169.859 168.694 165.211 176.122C157.063 176.76 148.586 177.05 140 177.05C131.414 177.05 123.102 176.76 115.062 176.238C110.305 168.868 105.82 161.323 101.609 153.605C97.3984 145.887 93.5156 138.052 89.8516 130.044ZM188.617 159.757C191.406 154.65 194.031 149.485 196.602 144.262C200.102 152.677 203.164 161.207 205.844 169.97C197.367 172.001 188.781 173.568 180.141 174.613C183.094 169.738 185.883 164.747 188.617 159.757ZM196.492 115.362C193.922 110.255 191.297 105.148 188.562 100.157C185.883 95.2243 183.094 90.3495 180.195 85.5328C189 86.6935 197.422 88.2603 205.297 90.1754C202.781 98.7642 199.828 107.121 196.492 115.362V115.362ZM140.109 50.0749C145.852 56.6906 151.266 63.6545 156.297 70.8506C145.469 70.3283 134.586 70.3283 123.758 70.8506C129.117 63.3644 134.641 56.4004 140.109 50.0749ZM76.6719 14.5009C85.8594 8.8137 106.258 16.9383 127.75 37.1336C129.117 38.4103 130.484 39.8031 131.906 41.1959C123.43 50.8873 115.609 61.2172 108.445 72.0112C96.0859 73.1719 83.8359 75.203 71.6953 78.0466C70.9844 75.0869 70.3828 72.0693 69.7812 69.0516C64.6406 40.9638 68.0312 19.7819 76.6719 14.5009V14.5009ZM63.2734 167.475C60.9766 166.778 58.7344 166.024 56.4922 165.212C44.8438 161.323 31.6094 155.172 22.0391 147.105C16.5156 143.043 12.7969 136.776 11.7578 129.754C11.7578 119.134 29.0391 105.554 53.9766 96.3269C57.0937 95.1662 60.2656 94.1216 63.4375 93.1351C67.1563 105.728 71.6406 118.089 76.8359 130.044C71.5859 142.173 67.0469 154.708 63.2734 167.475V167.475ZM127.039 224.347C118.016 233.11 107.57 240.074 96.1953 244.832C90.125 247.908 83.125 248.198 76.8906 245.587C68.1953 240.248 64.5859 219.762 69.5078 192.197C70.1094 188.947 70.7656 185.697 71.5313 182.505C83.7813 185.291 96.1406 187.206 108.664 188.193C115.883 199.045 123.812 209.432 132.289 219.182C130.539 220.981 128.789 222.722 127.039 224.347ZM140.437 210.245C134.859 203.861 129.281 196.781 123.867 189.179C129.117 189.411 134.531 189.527 140 189.527C145.633 189.527 151.156 189.411 156.625 189.121C151.594 196.491 146.18 203.513 140.437 210.245V210.245ZM211.914 227.655C211.422 234.735 208.141 241.35 202.891 245.819C194.195 251.158 175.656 244.194 155.641 225.972C153.344 223.883 151.047 221.619 148.695 219.298C157.062 209.49 164.773 199.103 171.773 188.193C184.297 187.09 196.766 185.059 209.07 182.099C209.617 184.478 210.109 186.858 210.547 189.179C213.227 201.714 213.664 214.771 211.914 227.655V227.655ZM221.867 165.27C220.336 165.792 218.805 166.314 217.219 166.778C213.391 154.127 208.688 141.766 203.273 129.754C208.523 117.915 212.953 105.728 216.672 93.2511C219.516 94.1216 222.25 95.0502 224.875 95.9787C250.359 105.264 268.242 119.076 268.242 129.638C268.242 141.012 249.156 155.694 221.867 165.27ZM140 103.407C153.836 103.407 165.047 115.304 165.047 129.986C165.047 144.668 153.836 156.565 140 156.565C126.164 156.565 114.953 144.668 114.953 129.986C114.953 115.304 126.164 103.407 140 103.407Z" transform="translate(260 210)" fill="#61DAFB"/>
</svg>
